#!OML:ASF H:\Terrain\Walking\May29\JustinRory\Justin.ASF
:FULLY-SPECIFIED
:DEGREES
744
root 16.6857 9.92064 -6.6341 -104.581 -86.2988 84.3248
lowerback 43.2654 3.5732 1.15919
upperback 17.8956 1.99533 2.46456
thorax -0.399163 -0.31016 1.32543
lowerneck -12.5273 15.7597 -1.20453
upperneck 17.8712 22.3697 -3.51019
head 7.851 10.2441 1.37984
rclavicle -7.95139e-015 -1.43125e-014
rhumerus 26.199 27.6026 -59.1103
rradius 73.0995
rwrist 5.49151
rhand 2.41713 22.2192
rfingers 7.12502
rthumb 27.9034 -5.72783
lclavicle -7.95139e-015 -1.43125e-014
lhumerus 32.6339 -28.5911 77.0564
lradius 58.2382
lwrist -25.6376
lhand 19.1832 32.7379
lfingers 7.12502
lthumb 43.7735 56.7048
rfemur -69.6995 -11.7807 14.0001
rtibia 74.0327
rfoot 18.9648 0.102388
rtoes 16.4139
lfemur -69.3404 9.36312 -16.3569
ltibia 74.1907
lfoot 19.9425 -5.93664
ltoes 8.78915
745
root 16.6965 9.93032 -6.63842 -104.808 -86.3004 84.4697
lowerback 43.359 3.61062 0.971917
upperback 18.0256 1.93752 2.66668
thorax -0.293772 -0.381846 1.65386
lowerneck -12.2785 15.9775 -1.92413
upperneck 17.8491 22.7819 -3.49237
head 7.72348 10.4123 1.48374
rclavicle -2.8625e-014 -1.82882e-014
rhumerus 26.6005 27.8849 -58.6225
rradius 73.4293
rwrist 5.46433
rhand 2.86287 22.6076
rfingers 7.12502
rthumb 28.3295 -5.26945
lclavicle -2.8625e-014 -1.82882e-014
lhumerus 32.734 -28.2127 77.2248
lradius 58.2735
lwrist -25.586
lhand 19.2173 32.5989
lfingers 7.12502
lthumb 43.8053 56.5541
rfemur -69.5572 -11.7165 13.9546
rtibia 74.053
rfoot 18.8971 -0.0645391
rtoes 17.4591
lfemur -69.1939 9.3061 -16.1378
ltibia 74.2058
lfoot 19.854 -5.50818
ltoes 12.6072
746
root 16.7033 9.93397 -6.64008 -104.962 -86.3326 84.6246
lowerback 43.3301 3.62781 0.821592
upperback 18.1851 1.86938 2.88085
thorax -0.121336 -0.456461 1.98029
lowerneck -11.9304 16.1421 -2.49951
upperneck 17.5324 23.1036 -3.67986
head 7.5223 10.5482 1.47666
rclavicle -2.62396e-014 -1.27222e-014
rhumerus 27.0445 28.1836 -58.0896
rradius 73.6685
rwrist 5.40304
rhand 2.35181 22.8156
rfingers 7.12502
rthumb 27.841 -5.14162
lclavicle -2.62396e-014 -1.27222e-014
lhumerus 32.9543 -27.7344 77.3711
lradius 58.1584
lwrist -25.6596
lhand 19.4682 32.0465
lfingers 7.12502
lthumb 44.0394 55.9147
rfemur -69.5845 -11.8101 14.0406
rtibia 74.0743
rfoot 18.9362 -0.20327
rtoes 18.7947
lfemur -69.2341 9.20161 -15.826
ltibia 74.3025
lfoot 19.7541 -4.8696
ltoes 17.1308
747
root 16.6775 9.90496 -6.64661 -105.728 -86.4031 85.4522
lowerback 43.3029 3.67162 0.714461
upperback 18.2621 1.86626 3.00708
thorax -0.0379999 -0.482471 2.16923
lowerneck -11.9326 16.2923 -2.43188
upperneck 17.7861 23.3569 -3.88167
head 7.64398 10.6366 1.4535
rclavicle -1.35174e-014 -1.27222e-014
rhumerus 27.2681 28.3088 -57.983
rradius 73.6547
rwrist 5.6957
rhand 1.74489 22.5134
rfingers 7.12502
rthumb 27.2606 -5.53638
lclavicle -1.35174e-014 -1.27222e-014
lhumerus 32.9992 -27.1605 77.7083
lradius 57.9769
lwrist -26.1912
lhand 19.0699 31.4707
lfingers 7.12502
lthumb 43.6676 55.4765
rfemur -69.9298 -12.0032 14.304
rtibia 74.2902
rfoot 18.9823 -0.0151936
rtoes 19.3408
lfemur -69.4305 9.47369 -16.1898
ltibia 74.383
lfoot 19.2334 -6.76148
ltoes 7.29013
748
root 16.686 9.90448 -6.65574 -107.049 -86.4342 86.8043
lowerback 43.3375 3.74021 0.599709
upperback 18.3413 1.88449 3.10857
thorax 0.0317798 -0.498846 2.3282
lowerneck -12.1667 16.5227 -2.43556
upperneck 18.3865 23.7386 -3.8972
head 7.8901 10.7697 1.54495
rclavicle -7.15625e-015 -5.56597e-015
rhumerus 27.5944 28.3607 -57.6525
rradius 73.6906
rwrist 6.03104
rhand 1.72035 22.3314
rfingers 7.12502
rthumb 27.2371 -5.72208
lclavicle -7.15625e-015 -5.56597e-015
lhumerus 33.5328 -26.6107 76.6824
lradius 58.2446
lwrist -25.3322
lhand 18.5794 31.3619
lfingers 7.12502
lthumb 43.2094 55.5334
rfemur -69.9688 -11.9665 14.4705
rtibia 74.2923
rfoot 18.905 0.06741
rtoes 19.6669
lfemur -69.5504 9.37328 -15.5938
ltibia 74.5038
lfoot 19.7212 -5.04382
ltoes 16.0718
749
root 16.6776 9.89529 -6.65774 -107.403 -86.4719 87.1433
lowerback 43.2923 3.76933 0.479226
upperback 18.56 1.82562 3.2616
thorax 0.279839 -0.568677 2.57131
lowerneck -12.5671 16.7797 -2.78715
upperneck 18.8422 24.2016 -3.80662
head 8.06221 10.9372 1.71983
rclavicle -1.19271e-014 -2.22639e-014
rhumerus 28.3607 28.5116 -56.818
rradius 73.8363
rwrist 5.89147
rhand 1.56445 22.2766
rfingers 7.12502
rthumb 27.088 -5.80016
lclavicle -1.19271e-014 -2.22639e-014
lhumerus 33.5662 -26.3917 77.1399
lradius 58.3028
lwrist -25.4454
lhand 19.0339 31.4206
lfingers 7.12502
lthumb 43.634 55.4387
rfemur -70.0314 -11.9115 14.4637
rtibia 74.4221
rfoot 18.8504 -0.0658375
rtoes 20.0023
lfemur -69.5291 9.56562 -15.9188
ltibia 74.4836
lfoot 19.3453 -6.44101
ltoes 9.12723
750
root 16.6856 9.89456 -6.66223 -108.267 -86.6152 87.9851
lowerback 43.2685 3.7872 0.47826
upperback 18.7494 1.80171 3.35669
thorax 0.496149 -0.606886 2.68008
lowerneck -12.9813 16.9125 -2.85403
upperneck 19.1708 24.4549 -3.80672
head 8.23832 11.0176 1.8135
rclavicle -5.32743e-014 -3.18055e-014
rhumerus 28.9273 28.5977 -56.4703
rradius 73.8998
rwrist 5.87798
rhand 1.34232 22.1147
rfingers 7.12502
rthumb 26.8754 -5.99496
lclavicle -5.32743e-014 -3.18055e-014
lhumerus 34.0845 -26.4098 76.6345
lradius 58.2871
lwrist -25.0235
lhand 19.58 31.2317
lfingers 7.12502
lthumb 44.1436 55.0608
rfemur -70.0127 -11.789 14.6103
rtibia 74.36
rfoot 18.954 -0.172939
rtoes 19.4005
lfemur -69.3838 9.4402 -15.2868
ltibia 74.4724
lfoot 19.7765 -4.63345
ltoes 18.8796
751
root 16.6863 9.88804 -6.66843 -109.963 -86.7333 89.5674
lowerback 43.5503 3.78811 0.63062
upperback 18.7654 1.83467 3.32153
thorax 0.44855 -0.588243 2.55323
lowerneck -12.8428 17.0387 -2.64868
upperneck 19.2008 24.6305 -4.03515
head 8.28377 11.0912 1.73663
rclavicle -5.56597e-015 -1.59028e-015
rhumerus 28.9775 28.521 -56.6942
rradius 73.9474
rwrist 6.18136
rhand 1.27957 21.9984
rfingers 7.12502
rthumb 26.8154 -6.12046
lclavicle -5.56597e-015 -1.59028e-015
lhumerus 34.3862 -26.5124 76.0083
lradius 58.3867
lwrist -24.6612
lhand 19.5463 31.035
lfingers 7.12502
lthumb 44.1122 54.8759
rfemur -69.8719 -11.5937 14.7605
rtibia 74.3168
rfoot 18.9843 -0.142273
rtoes 18.6623
lfemur -69.3904 9.71482 -15.6133
ltibia 74.4345
lfoot 19.3027 -6.71356
ltoes 7.7507
752
root 16.7124 9.90159 -6.67386 -111.298 -86.7806 90.8049
lowerback 43.7663 3.74549 0.747613
upperback 18.7803 1.80353 3.23412
thorax 0.420812 -0.598086 2.41145
lowerneck -12.0448 17.29 -2.46177
upperneck 18.7209 24.9501 -4.55448
head 8.08599 11.2634 1.50182
rclavicle -3.4191e-014 -2.94201e-014
rhumerus 29.0005 28.5271 -56.8774
rradius 74.1378
rwrist 6.43472
rhand 1.02151 21.9864
rfingers 7.12502
rthumb 26.5684 -6.17011
lclavicle -3.4191e-014 -2.94201e-014
lhumerus 34.6066 -26.7848 74.9917
lradius 58.8621
lwrist -23.8631
lhand 19.346 31.585
lfingers 7.12502
lthumb 43.9253 55.4957
rfemur -69.5975 -11.4226 14.824
rtibia 74.1052
rfoot 18.9847 -0.185101
rtoes 18.6547
lfemur -69.2278 9.43595 -14.9394
ltibia 74.4074
lfoot 19.7741 -4.75319
ltoes 17.3515
753
root 16.713 9.89597 -6.67681 -111.476 -86.7588 90.9741
lowerback 43.6898 3.70804 0.595689
upperback 18.9057 1.66798 3.24823
thorax 0.580132 -0.689927 2.54987
lowerneck -11.4866 17.5606 -2.52116
upperneck 18.242 25.337 -4.99007
head 7.89153 11.4575 1.34594
rclavicle -3.81667e-014 -1.90833e-014
rhumerus 29.4469 28.9056 -56.4952
rradius 74.5005
rwrist 6.25547
rhand 1.68596 21.9764
rfingers 7.12502
rthumb 27.2042 -6.08214
lclavicle -3.81667e-014 -1.90833e-014
lhumerus 35.4245 -27.4809 72.8208
lradius 59.2275
lwrist -22.1083
lhand 18.499 32.7709
lfingers 7.12502
lthumb 43.1344 56.9691
rfemur -69.615 -11.3754 14.8092
rtibia 74.0977
rfoot 18.9583 -0.127909
rtoes 18.0588
lfemur -69.1819 9.48275 -15.1309
ltibia 74.3695
lfoot 19.5398 -5.56311
ltoes 12.8575
754
root 16.7164 9.8949 -6.67727 -111.04 -86.741 90.5366
lowerback 43.6629 3.70716 0.334323
upperback 18.9996 1.54529 3.42695
thorax 0.680263 -0.796336 2.91422
lowerneck -11.6163 17.7631 -2.93283
upperneck 18.3305 25.6628 -4.80448
head 7.87005 11.6015 1.48801
rclavicle 8.74653e-015 1.59028e-015
rhumerus 30.074 29.3391 -55.7476
rradius 74.7919
rwrist 5.70592
rhand 5.21619 22.1864
rfingers 7.12502
rthumb 30.5762 -5.29502
lclavicle 8.74653e-015 1.59028e-015
lhumerus 36.5426 -28.3683 70.2281
lradius 59.2555
lwrist -19.8378
lhand 17.6856 34.1008
lfingers 7.12502
lthumb 42.3733 58.5645
rfemur -69.5841 -11.4621 14.8794
rtibia 74.0198
rfoot 18.9797 0.124186
rtoes 16.7526
lfemur -69.2505 9.46237 -14.9753
ltibia 74.4468
lfoot 19.7183 -4.72304
ltoes 17.1034
755
root 16.6935 9.87393 -6.67454 -111.294 -86.8472 90.8254
lowerback 43.7159 3.63146 0.482248
upperback 18.9887 1.50939 3.48483
thorax 0.659749 -0.8093 2.91329
lowerneck -11.7852 17.8848 -3.47468
upperneck 18.5124 25.8012 -4.10111
head 7.78924 11.6947 1.76967
rclavicle -7.95139e-015 8.74653e-015
rhumerus 30.1943 29.4179 -55.5185
rradius 74.9746
rwrist 5.39679
rhand 10.3454 21.8296
rfingers 7.12502
rthumb 35.4538 -4.61928
lclavicle -7.95139e-015 8.74653e-015
lhumerus 37.1248 -28.911 68.8103
lradius 59.39
lwrist -18.6039
lhand 17.6441 34.7152
lfingers 7.12502
lthumb 42.3344 59.1922
rfemur -69.7685 -11.609 15.0802
rtibia 74.1715
rfoot 19.0439 0.344565
rtoes 15.9788
lfemur -69.4144 9.87811 -15.4876
ltibia 74.511
lfoot 19.2462 -6.71598
ltoes 8.06764
756
root 16.7072 9.88191 -6.67811 -113.993 -87.1123 93.5597
lowerback 43.8207 3.47297 1.11361
upperback 18.9394 1.56024 3.33646
thorax 0.607953 -0.723002 2.41829
lowerneck -11.8832 17.938 -3.80448
upperneck 18.5752 25.8035 -3.44652
head 7.688 11.7402 1.98848
rclavicle -1.74931e-014 1.59028e-015
rhumerus 29.8037 29.1583 -55.9214
rradius 75.1462
rwrist 5.46293
rhand 9.63258 22.3868
rfingers 7.12502
rthumb 34.7778 -4.22091
lclavicle -1.74931e-014 1.59028e-015
lhumerus 33.2758 -23.9362 79.6956
lradius 58.5949
lwrist -27.9034
lhand 21.7619 31.1072
lfingers 7.12502
lthumb 46.1728 54.1295
rfemur -69.7278 -11.4697 15.3619
rtibia 74.1247
rfoot 19.0521 0.0521443
rtoes 17.0239
lfemur -69.5266 9.80708 -14.6926
ltibia 74.6209
lfoot 19.7458 -5.08177
ltoes 18.1987
757
root 16.7089 9.8711 -6.67068 -113.727 -87.1808 93.4105
lowerback 43.6256 3.36873 1.07678
upperback 19.0384 1.4027 3.41059
thorax 0.77121 -0.815708 2.56915
lowerneck -11.9924 18.1404 -4.1097
upperneck 18.4733 26.1464 -3.50263
head 7.64317 11.8892 2.03845
rclavicle -2.14687e-014 -7.95139e-016
rhumerus 30.2066 29.473 -55.6443
rradius 75.248
rwrist 5.45947
rhand 9.83093 22.6128
rfingers 7.12502
rthumb 34.966 -3.95123
lclavicle -2.14687e-014 -7.95139e-016
lhumerus 33.7838 -23.906 78.8754
lradius 58.2096
lwrist -27.0336
lhand 21.2127 31.0701
lfingers 7.12502
lthumb 45.6631 54.3036
rfemur -69.9733 -11.4924 15.3484
rtibia 74.2301
rfoot 19.0487 -0.162699
rtoes 18.4918
lfemur -69.6795 9.71259 -14.8283
ltibia 74.584
lfoot 19.5821 -5.77666
ltoes 14.5355
758
root 16.7212 9.86951 -6.65606 -108.479 -86.8895 88.2931
lowerback 43.5277 3.18547 1.04881
upperback 19.0451 1.17388 3.25662
thorax 0.817284 -0.913264 2.49831
lowerneck -12.1101 18.2372 -4.30041
upperneck 18.4168 26.3046 -3.43968
head 7.61056 11.9637 2.09544
rclavicle -8.74653e-015 -1.59028e-014
rhumerus 30.2693 29.5848 -55.4538
rradius 75.407
rwrist 5.30154
rhand 11.0355 20.4335
rfingers 7.12502
rthumb 36.1078 -5.85643
lclavicle -8.74653e-015 -1.59028e-014
lhumerus 34.0883 -23.9602 78.414
lradius 58.0573
lwrist -26.5997
lhand 20.823 31.1553
lfingers 7.12502
lthumb 45.301 54.5353
rfemur -70.1769 -11.8365 15.0162
rtibia 74.178
rfoot 19.1722 0.17968
rtoes 17.6969
lfemur -69.8601 9.25235 -15.0121
ltibia 74.5881
lfoot 19.8607 -4.7448
ltoes 17.7861
